{"title":"Big Mommas Like Father Like Son 2011 R5 AC3 XViD-T0XiCiNK [bitxt","uid":6260538,"size":1533494929,"categoryP":"video","categoryS":"movies","magnet":"?xt=urn:btih:9080fe820db020dfc8e3bd8a8f16cde057c5103d&amp;dn=Big+Mommas+Like+Father+Like+Son+2011+R5+AC3+XViD-T0XiCiNK+%5Bbitxt&amp;tr=udp%3A%2F%2Ftracker.openbittorrent.com%3A80&amp;tr=udp%3A%2F%2Fopen.demonii.com%3A1337&amp;tr=udp%3A%2F%2Ftracker.coppersurfer.tk%3A6969&amp;tr=udp%3A%2F%2Fexodus.desync.com%3A6969","seeders":0,"leechers":1,"uploader":"Kill3rK","files":3,"time":1300736390,"description":"                        Clean Scene Releases and no fakes\n    \n\n                              &lt;a href=&quot; https://bitxtre.me/&quot; rel=&quot;nofollow&quot; target=&quot;_NEW&quot;&gt; https://bitxtre.me/&lt;/a&gt;\n\n                             Secure SSL Downloading\n-----------------------------------------------------------------------------------\n\n\n\n\n\n\n\n        :::::::::::::Enjoy:Another:Release:From:T0XiCiNK::::::::::::::\n\nFile:: Big.Mommas.Like.Father.Like.Son.2011.R5.AC3.XViD-T0XiCiNK\n\nVideo Source:: ELEKTRI4KA\nAudio Source:: Own\nLanguage::English\nIMDB:: http://www.imdb.com/title/tt1464174/\n\nFBI agent Malcolm Turner and his stepson Trent go undercover at\nan all-girls performing arts school after Trent witnesses a murder.\n\nSpecs::\n\nGeneral\n\nFormat                           : AVI\nFormat/Info                      : Audio Video Interleave\nFile size                        : 1.41 GiB\nDuration                         : 1h 42mn\nOverall bit rate                 : 1 965 Kbps\nWriting application              : VirtualDubMod 1.5.10.2 (build 2540/release)\nWriting library                  : VirtualDubMod build 2540/release\n\nVideo\nID                               : 0\nFormat                           : MPEG-4 Visual\nFormat profile                   : Advanced Simple@L5\nFormat settings, BVOP            : Yes\nFormat settings, QPel            : No\nFormat settings, GMC             : No warppoints\nFormat settings, Matrix          : Default (H.263)\nMuxing mode                      : Packed bitstream\nCodec ID                         : XVID\nCodec ID/Hint                    : XviD\nDuration                         : 1h 42mn\nBit rate                         : 1 507 Kbps\nWidth                            : 720 pixels\nHeight                           : 304 pixels\nDisplay aspect ratio             : 2.35:1\nFrame rate                       : 25.000 fps\nColor space                      : YUV\nChroma subsampling               : 4:2:0\nBit depth                        : 8 bits\nScan type                        : Progressive\nBits/(Pixel*Frame)               : 0.275\nStream size                      : 1.08 GiB (77%)\nWriting library                  : XviD 1.2.1 (UTC 2008-12-04)\n\nAudio\nID                               : 1\nFormat                           : AC-3\nFormat/Info                      : Audio Coding 3\nMode extension                   : CM (complete main)\nCodec ID                         : 2000\nDuration                         : 1h 42mn\nBit rate mode                    : Constant\nBit rate                         : 448 Kbps\nChannel(s)                       : 6 channels\nChannel positions                : Front: L C R, Side: L R, LFE\nSampling rate                    : 48.0 KHz\nBit depth                        : 16 bits\nStream size                      : 330 MiB (23%)\nAlignment                        : Split accross interleaves\nInterleave, duration             : 40 ms (1.00 video frame)\nInterleave, preload duration     : 500 ms\n\n\nNOTES:: Presenting first R5 of Big Mommas: Like Father Like Son. Enjoy.\n\n\n::Why Complain? Whats Free Is Free::\n\n::We are always looking for friends with unreleased DVD's, Screeners, R5's, Audio, Cams, Silvers,\n...and any other good sources you may have to offer -\n..contact us: &lt;a class=&quot;__cf_email__&quot; href=&quot;/cdn-cgi/l/email-protection&quot; data-cfemail=&quot;c0b4f0b8a9a3b2a5aca5a1b3a5b380a8b5b3a8ada1a9aceea3afad&quot;&gt;[email&amp;#160;protected]&lt;/a&gt;&lt;script cf-hash='f9e31' type=&quot;text/javascript&quot;&gt;\n/* &lt;![CDATA[ */!function(){try{var t=&quot;currentScript&quot;in document?document.currentScript:function(){for(var t=document.getElementsByTagName(&quot;script&quot;),e=t.length;e--;)if(t[e].getAttribute(&quot;cf-hash&quot;))return t[e]}();if(t&amp;&amp;t.previousSibling){var e,r,n,i,c=t.previousSibling,a=c.getAttribute(&quot;data-cfemail&quot;);if(a){for(e=&quot;&quot;,r=parseInt(a.substr(0,2),16),n=2;a.length-n;n+=2)i=parseInt(a.substr(n,2),16)^r,e+=String.fromCharCode(i);e=document.createTextNode(e),c.parentNode.replaceChild(e,c)}}}catch(u){}}();/* ]]&gt; */&lt;/script&gt; or &lt;a class=&quot;__cf_email__&quot; href=&quot;/cdn-cgi/l/email-protection&quot; data-cfemail=&quot;5b3f323c322f3a37753235301b37322d3e75383436&quot;&gt;[email&amp;#160;protected]&lt;/a&gt;&lt;script cf-hash='f9e31' type=&quot;text/javascript&quot;&gt;\n/* &lt;![CDATA[ */!function(){try{var t=&quot;currentScript&quot;in document?document.currentScript:function(){for(var t=document.getElementsByTagName(&quot;script&quot;),e=t.length;e--;)if(t[e].getAttribute(&quot;cf-hash&quot;))return t[e]}();if(t&amp;&amp;t.previousSibling){var e,r,n,i,c=t.previousSibling,a=c.getAttribute(&quot;data-cfemail&quot;);if(a){for(e=&quot;&quot;,r=parseInt(a.substr(0,2),16),n=2;a.length-n;n+=2)i=parseInt(a.substr(n,2),16)^r,e+=String.fromCharCode(i);e=document.createTextNode(e),c.parentNode.replaceChild(e,c)}}}catch(u){}}();/* ]]&gt; */&lt;/script&gt;\n\n::::::::::::::::::::::::::::::::::::   Respect To   :::::::::::::::::::::::::::::::::::::\n::FLAWL3SS,Rx,Hive-CM8,Tranz,Vik,OneTwo,Joey,bob,Unevano,SANTi &amp; our friends on utn and PA::\n                      &quot;and to all of you who support us, Thank-You&quot;    ","torrent":{"xt":"urn:btih:9080fe820db020dfc8e3bd8a8f16cde057c5103d","amp;dn":"Big+Mommas+Like+Father+Like+Son+2011+R5+AC3+XViD-T0XiCiNK+%5Bbitxt","amp;tr":["udp%3A%2F%2Ftracker.openbittorrent.com%3A80","udp%3A%2F%2Fopen.demonii.com%3A1337","udp%3A%2F%2Ftracker.coppersurfer.tk%3A6969","udp%3A%2F%2Fexodus.desync.com%3A6969"],"infoHash":"9080fe820db020dfc8e3bd8a8f16cde057c5103d","infoHashBuffer":{"type":"Buffer","data":[144,128,254,130,13,176,32,223,200,227,189,138,143,22,205,224,87,197,16,61]},"announce":[],"urlList":[]}}